<svg xmlns="http://www.w3.org/2000/svg" viewBox="0 0 32 32"><path d="M29.49,16.46a1,1,0,0,0-.06-.33l-1.5-3.74a3,3,0,0,0-2.78-1.89H19.5v-3a1,1,0,0,0-1-1H3.5a1,1,0,0,0-1,1v15a1,1,0,0,0,1,1H6.68a3,3,0,0,0,5.64,0h8.36a3,3,0,0,0,5.64,0H28.5a1,1,0,0,0,1-1v-6S29.49,16.48,29.49,16.46Zm-4.34-4a1,1,0,0,1,.92.63L27,15.5H19.5v-3ZM4.5,8.5h13v13H12.32a3,3,0,0,0-5.64,0H4.5Zm5,15a1,1,0,1,1,1-1A1,1,0,0,1,9.5,23.5Zm14,0a1,1,0,1,1,1-1A1,1,0,0,1,23.5,23.5Zm4-2H26.32a3,3,0,0,0-5.64,0H19.5v-4h8Z" fill="#ffffff" class="color000000 svgShape"></path></svg>