<svg id="SvgjsSvg1026" width="288" height="288" xmlns="http://www.w3.org/2000/svg" version="1.1" xmlns:xlink="http://www.w3.org/1999/xlink" xmlns:svgjs="http://svgjs.com/svgjs"><defs id="SvgjsDefs1027"></defs><g id="SvgjsG1028" transform="matrix(1,0,0,1,0,0)"><svg xmlns="http://www.w3.org/2000/svg" viewBox="0 0 64 64" width="288" height="288"><path d="M60.7773,32.0645,55,35.5743V31.0962l3.1685-1.9214a1.0163,1.0163,0,0,0,.3359-1.375l-3.6157-5.9482a1.0015,1.0015,0,0,0-1.373-.3359L46.121,26H36.2779l13.3-8.08a1.0146,1.0146,0,0,0,.3354-1.374L47.8359,13.127a1.0009,1.0009,0,0,0-1.3735-.335L24.7221,26H11.0547L44.6816,5.5713h0a3.0047,3.0047,0,0,1,4.1221,1.0049l12.98,21.3662A3.0254,3.0254,0,0,1,60.7773,32.0645ZM53,31.8223V56a3.0033,3.0033,0,0,1-3,3H5a3.0033,3.0033,0,0,1-3-3V31a3.0033,3.0033,0,0,1,3-3H50a3.04,3.04,0,0,1,2.9072,2.2941A6.4157,6.4157,0,0,1,53,31.8223ZM27,49a1.0007,1.0007,0,0,0,0-2A1.0007,1.0007,0,0,0,27,49Zm-3,0a1.0007,1.0007,0,0,0,0-2A1.0007,1.0007,0,0,0,24,49Zm-7,0a1.0007,1.0007,0,0,0,0-2A1.0007,1.0007,0,0,0,17,49Zm-4-1a1.0007,1.0007,0,0,0,2,0A1.0007,1.0007,0,0,0,13,48ZM7,43h6a1,1,0,0,0,1-1V36a1,1,0,0,0-1-1H7a1.0374,1.0374,0,0,0-1,1v6a1.0293,1.0293,0,0,0,.9979,1Zm3,5a1.0007,1.0007,0,0,0,2,0A1.0007,1.0007,0,0,0,10,48Zm37,4a1,1,0,0,0-1-1H9a1,1,0,0,0,0,2H46A1,1,0,0,0,47,52ZM31,48a1.0007,1.0007,0,0,0-2,0A1.0007,1.0007,0,0,0,31,48Zm3,0a1.0007,1.0007,0,0,0-2,0A1.0007,1.0007,0,0,0,34,48Zm3,0a1.0007,1.0007,0,0,0-2,0A1.0007,1.0007,0,0,0,37,48Zm3,0a1.0007,1.0007,0,0,0-2,0A1.0007,1.0007,0,0,0,40,48Zm3,0a1.0007,1.0007,0,0,0-2,0A1.0007,1.0007,0,0,0,43,48Zm3,0a1.0007,1.0007,0,0,0-2,0A1.0007,1.0007,0,0,0,46,48Zm0-12H28a1.0006,1.0006,0,0,0,0,2H46A1.0006,1.0006,0,0,0,46,36Zm0-3H33a1.0006,1.0006,0,0,0,0,2H46A1.0006,1.0006,0,0,0,46,33ZM9.9628,41H12V40H10.5112A3.3464,3.3464,0,0,1,9.9628,41ZM8,40.1763a1.5833,1.5833,0,0,0,.6665-1.0649A1.8556,1.8556,0,0,0,8,37.9435ZM10.4383,38H12V37H9.8419A4.0537,4.0537,0,0,1,10.4383,38Z" data-name="22 payment method" fill="#ffffff" class="color000 svgShape"></path></svg></g></svg>