<svg xmlns="http://www.w3.org/2000/svg" xmlns:svgjs="http://svgjs.com/svgjs" xmlns:xlink="http://www.w3.org/1999/xlink" id="SvgjsSvg1016" width="288" height="288" version="1.1"><g id="SvgjsG1018" transform="matrix(1,0,0,1,0,0)"><svg xmlns="http://www.w3.org/2000/svg" width="288" height="288" viewBox="0 0 24 24"><g fill="#fff" class="color000 svgShape" data-name="Layer 2"><g fill="#fff" class="color000 svgShape" data-name="menu-arrow-circle"><rect width="24" height="24" fill="#fff" class="color000 svgShape" opacity="0" transform="rotate(180 12 12)"/><path fill="#fff" d="M12 2a10 10 0 1 0 10 10A10 10 0 0 0 12 2zm0 18a8 8 0 1 1 8-8 8 8 0 0 1-8 8z" class="color000 svgShape"/><path fill="#fff" d="M12 6a3.5 3.5 0 0 0-3.5 3.5 1 1 0 0 0 2 0A1.5 1.5 0 1 1 12 11a1 1 0 0 0-1 1v2a1 1 0 0 0 2 0v-1.16A3.49 3.49 0 0 0 12 6z" class="color000 svgShape"/><circle cx="12" cy="17" r="1" fill="#fff" class="color000 svgShape"/></g></g></svg></g></svg>